<svg id="Capa_1" data-name="Capa 1" xmlns="http://www.w3.org/2000/svg" viewBox="0 0 40 40"><defs><style>.cls-1{fill:none;stroke:#000;stroke-linecap:round;stroke-miterlimit:10;stroke-width:2px;}</style></defs><g id="calendar"><line class="cls-1" x1="13.4" y1="5.53" x2="26.6" y2="5.53"/><path class="cls-1" d="M35.09,5.58a3.62,3.62,0,0,1,3,3.57V33.66a3.62,3.62,0,0,1-3.62,3.61h-29a3.62,3.62,0,0,1-3.62-3.61V9.15A3.62,3.62,0,0,1,4.71,5.62"/><rect class="cls-1" x="6.92" y="0.98" width="3.22" height="10.92" rx="1.61"/><rect class="cls-1" x="29.78" y="0.98" width="3.22" height="10.92" rx="1.61"/><rect class="cls-1" x="11.07" y="16.5" width="17.85" height="15.93" rx="2.25"/><line class="cls-1" x1="20" y1="19.99" x2="20" y2="28.17"/><line class="cls-1" x1="24.09" y1="24.08" x2="15.91" y2="24.08"/></g></svg>