<svg xmlns="http://www.w3.org/2000/svg" viewBox="0 0 40 40"><defs><style>.cls-1{fill:none;stroke:#000;stroke-linecap:round;stroke-miterlimit:10;stroke-width:2px;}</style></defs><g id="Capa_3" data-name="Capa 3"><path class="cls-1" d="M36.36,20.18a1.76,1.76,0,0,0-1.76-1.76H13.2a1.77,1.77,0,0,0-.56.09l-5.15.92A6.12,6.12,0,0,0,4.38,21c-1.14,1-2.29,2.42-2,3l.17.39a1.75,1.75,0,0,0,1.62,1.07h.26"/><path class="cls-1" d="M32.77,26H34.6a1.76,1.76,0,0,0,1.76-1.76V22.48"/><line class="cls-1" x1="13.53" y1="25.94" x2="23.92" y2="25.94"/><circle class="cls-1" cx="9" cy="24.73" r="3.29"/><circle class="cls-1" cx="29.14" cy="24.73" r="3.29"/><path class="cls-1" d="M13.2,18.42l3.87-3.25a4.12,4.12,0,0,1,2.68-1h4.61a4.2,4.2,0,0,1,2.18.61l5.89,3.62"/><line class="cls-1" x1="25.62" y1="14.39" x2="25.62" y2="18.42"/><rect x="34.95" y="20.4" width="3.14" height="2.08" rx="1.04"/></g></svg>