<svg xmlns="http://www.w3.org/2000/svg" viewBox="0 0 40 40"><defs><style>.cls-1,.cls-2,.cls-3{fill:none;stroke:#000;stroke-width:2px;}.cls-1,.cls-3{stroke-miterlimit:10;}.cls-2,.cls-3{stroke-linecap:round;}.cls-2{stroke-linejoin:round;}</style></defs><g id="Capa_3" data-name="Capa 3"><rect class="cls-1" x="10.03" y="6.33" width="2.97" height="27.01" rx="1.48"/><path class="cls-2" d="M15.34,9.18V20.25s1.1-1.91,4.69-1.91,5.72,3.08,9.46,3.08a4.1,4.1,0,0,0,4.32-3.08v-12s-2.05,3-4.84,3-6.66-2.56-10-2.56S15.34,9.18,15.34,9.18Z"/><path class="cls-3" d="M15.92,30.77c1.13.55,1.83,1.3,1.83,2.13,0,1.65-2.79,3-6.24,3s-6.23-1.35-6.23-3A2.36,2.36,0,0,1,6.69,31"/><path d="M24.89,8.31v5.22A15.57,15.57,0,0,0,19.37,12a6.43,6.43,0,0,0-4,1.57V9.18s.24-2.41,3.59-2.41A12.88,12.88,0,0,1,24.89,8.31Z"/><path d="M24.89,13.53V20s1.57,1.44,5.42,1.44c2.91,0,3.5-3.08,3.5-3.08V13.53a7.5,7.5,0,0,1-4.46,2A7.5,7.5,0,0,1,24.89,13.53Z"/></g></svg>