<svg xmlns="http://www.w3.org/2000/svg" viewBox="0 0 40 40"><defs><style>.cls-1{fill:none;stroke:#000;stroke-linecap:round;stroke-miterlimit:10;stroke-width:2px;}</style></defs><g id="Capa_3" data-name="Capa 3"><path class="cls-1" d="M4.38,22.87H5.77s.07,0,.09.08l1.5,3.69c0,.12.16.11.19,0l3-11.07c0-.15.19-.13.21,0l2.6,18.06c0,.18.19.18.22,0l1.69-10.73c0-.08.06-.13.11-.13h7.11"/><path class="cls-1" d="M17,31.8a34.8,34.8,0,0,0,3.41,1.88.89.89,0,0,0,.81,0C23.62,32.52,35.94,26.11,36,16.22a7.6,7.6,0,0,0-7.43-7.64c-7.4-.1-7.79,7.59-7.79,7.59s-.25-7.66-7.65-7.59a7.62,7.62,0,0,0-7.49,7.63,12.48,12.48,0,0,0,.51,3.43"/></g></svg>