<svg id="Capa_1" data-name="Capa 1" xmlns="http://www.w3.org/2000/svg" viewBox="0 0 40 40"><defs><style>.cls-1,.cls-2,.cls-3{fill:none;stroke:#020202;stroke-width:2px;}.cls-1,.cls-3{stroke-linecap:round;}.cls-1,.cls-2{stroke-miterlimit:10;}.cls-3{stroke-linejoin:round;}</style></defs><g id="calendar"><path class="cls-1" d="M27.83,6.81a3.32,3.32,0,0,1,3.32,3.32V31a3.32,3.32,0,0,1-3.32,3.32H12.27A3.32,3.32,0,0,1,9,31V10.13a3.31,3.31,0,0,1,3.32-3.32"/><path class="cls-2" d="M22.19,5.84H24.4a.81.81,0,0,1,.81.8V7.71a.81.81,0,0,1-.81.8H16a.8.8,0,0,1-.8-.8V6.64a.8.8,0,0,1,.8-.8h2.21A.81.81,0,0,0,19,5h0a.81.81,0,0,1,.8-.81h.75a.81.81,0,0,1,.81.81h0A.8.8,0,0,0,22.19,5.84Z"/><polyline class="cls-3" points="13 15.88 13.75 16.58 15.92 14.34"/><line class="cls-3" x1="17.92" y1="15.72" x2="27.61" y2="15.72"/><polyline class="cls-3" points="13 19.84 13.75 20.55 15.92 18.31"/><line class="cls-3" x1="17.92" y1="19.69" x2="27.61" y2="19.69"/><polyline class="cls-3" points="13 23.81 13.75 24.52 15.92 22.28"/><line class="cls-3" x1="17.92" y1="23.66" x2="27.61" y2="23.66"/><polyline class="cls-3" points="13 27.78 13.75 28.49 15.92 26.25"/><line class="cls-3" x1="17.92" y1="27.62" x2="27.61" y2="27.62"/></g></svg>