<svg xmlns="http://www.w3.org/2000/svg" viewBox="0 0 40 40"><defs><style>.cls-1{fill:none;stroke:#020202;stroke-miterlimit:10;stroke-width:2px;}</style></defs><g id="Capa_3" data-name="Capa 3"><path class="cls-1" d="M10,8.72H30a3.43,3.43,0,0,1,3.43,3.43v0a2.15,2.15,0,0,1-2.15,2.15H8.75A2.15,2.15,0,0,1,6.6,12.15v0A3.43,3.43,0,0,1,10,8.72Z"/><path class="cls-1" d="M13.83,9V7.77A3.75,3.75,0,0,1,17.58,4h5a3.75,3.75,0,0,1,3.75,3.75V9"/><path class="cls-1" d="M31.48,14.38,30.26,31.87A4.4,4.4,0,0,1,25.87,36H14.39A4.41,4.41,0,0,1,10,31.87L8.77,14.38"/><line class="cls-1" x1="19.89" y1="16.55" x2="19.89" y2="32.32"/><line class="cls-1" x1="24.95" y1="16.55" x2="24.95" y2="32.32"/><line class="cls-1" x1="14.43" y1="16.55" x2="14.43" y2="32.32"/></g></svg>